<?xml version="1.0" encoding="UTF-8"?>
<svg id="Layer" xmlns="http://www.w3.org/2000/svg" viewBox="0 0 472.79 153.37">
  <defs>
    <style>
      .cls-1 {
        fill: #fff;
      }
    </style>
  </defs>
  <g>
    <path class="cls-1" d="M155.52,54.08v-.06h-10.48v2.69h7.73c-.17,1.75-.76,3.14-1.76,4.14-1.56,1.54-3.54,2.33-5.9,2.33-2.19,0-4.14-.78-5.78-2.31-1.61-1.54-2.42-3.57-2.42-6.03s.82-4.48,2.42-6.01c1.62-1.53,3.57-2.31,5.78-2.31,2.48,0,4.37.8,5.79,2.46l.06.07,1.97-1.96-.05-.06c-.82-.98-1.95-1.78-3.36-2.37-1.43-.6-2.91-.9-4.41-.9-3.08,0-5.74,1.08-7.9,3.2-2.16,2.11-3.25,4.77-3.25,7.9s1.09,5.78,3.25,7.91c2.17,2.11,4.82,3.18,7.9,3.18s5.88-1.06,7.9-3.15c1.77-1.77,2.66-4.16,2.66-7.09,0-.6-.05-1.11-.16-1.61Z"/>
    <polygon class="cls-1" points="159.46 65.44 172.06 65.44 172.06 62.69 162.36 62.69 162.36 56.18 171.11 56.18 171.11 53.48 162.36 53.48 162.36 46.96 172.06 46.96 172.06 44.22 159.46 44.22 159.46 65.44"/>
    <polygon class="cls-1" points="174.76 46.96 180.71 46.96 180.71 65.44 183.62 65.44 183.62 46.96 189.57 46.96 189.57 44.22 174.76 44.22 174.76 46.96"/>
  </g>
  <g>
    <rect class="cls-1" x="200.01" y="44.22" width="2.9" height="21.22"/>
    <polygon class="cls-1" points="206.21 46.96 212.18 46.96 212.18 65.44 215.06 65.44 215.06 46.96 221.03 46.96 221.03 44.22 206.21 44.22 206.21 46.96"/>
  </g>
  <g>
    <path class="cls-1" d="M240.87,43.74c-3.13,0-5.78,1.08-7.88,3.22-2.1,2.13-3.16,4.78-3.16,7.88s1.06,5.74,3.16,7.87c2.11,2.13,4.76,3.22,7.88,3.22s5.76-1.08,7.87-3.22h0c2.1-2.13,3.16-4.78,3.16-7.87s-1.07-5.72-3.18-7.86c-2.1-2.15-4.74-3.23-7.85-3.23ZM248.95,54.83c0,2.42-.79,4.44-2.36,6-1.54,1.56-3.46,2.34-5.72,2.34s-4.16-.77-5.74-2.34c-1.56-1.56-2.36-3.58-2.36-6s.79-4.44,2.36-6c1.56-1.56,3.49-2.34,5.74-2.34s4.18.79,5.72,2.34c1.56,1.56,2.36,3.58,2.36,6Z"/>
    <polygon class="cls-1" points="269.29 44.22 269.29 56.63 269.4 60.58 259.08 44.26 259.05 44.22 255.6 44.22 255.6 65.44 258.48 65.44 258.48 52.24 258.36 48.26 269.2 65.44 272.19 65.44 272.19 44.22 269.29 44.22"/>
  </g>
  <g>
    <rect class="cls-1" x="367.12" y="81.17" width="6.65" height="43.91"/>
    <path class="cls-1" d="M390.05,96.03c-4.79,0-9.77,2.09-11.82,6.72l5.88,2.44c1.26-2.44,3.59-3.23,6.05-3.23,3.44,0,6.93,2.04,6.98,5.65v.46c-1.2-.69-3.77-1.7-6.92-1.7-6.34,0-12.79,3.45-12.79,9.88,0,5.89,5.19,9.67,11.02,9.67,4.46,0,6.92-1.99,8.47-4.3h.22v3.39h6.4v-16.84c0-7.79-5.88-12.14-13.5-12.14ZM389.25,120.09c-2.17,0-5.19-1.06-5.19-3.72,0-3.4,3.77-4.7,7.03-4.7,2.92,0,4.29.63,6.06,1.48-.52,4.06-4.06,6.95-7.9,6.95Z"/>
    <path class="cls-1" d="M348.9,81.17h-15.9v43.91h6.63v-16.64h9.27c7.36,0,14.58-5.27,14.58-13.64s-7.24-13.64-14.58-13.64ZM349.07,102.34h-9.44v-15.06h9.44c4.95,0,7.77,4.06,7.77,7.53s-2.83,7.53-7.77,7.53Z"/>
    <polygon class="cls-1" points="426.87 96.99 419.25 116.03 419.02 116.03 411.15 96.99 404 96.99 415.83 123.59 409.08 138.39 416.01 138.39 434.24 96.99 426.87 96.99"/>
  </g>
  <g>
    <path class="cls-1" d="M156.76,100.69v6.35h15.34c-.45,3.55-1.65,6.16-3.49,7.97-2.24,2.2-5.73,4.63-11.85,4.63-9.44,0-16.83-7.53-16.83-16.86s7.39-16.86,16.83-16.86c5.1,0,8.82,1.97,11.56,4.53l4.53-4.47c-3.84-3.62-8.94-6.4-16.09-6.4-12.95,0-23.83,10.41-23.83,23.21s10.88,23.21,23.83,23.21c6.99,0,12.25-2.26,16.38-6.52,4.23-4.18,5.55-10.07,5.55-14.82,0-1.47-.12-2.83-.35-3.96h-21.59Z"/>
    <path class="cls-1" d="M229.23,96.11c-8.35,0-15.16,6.28-15.16,14.94s6.82,14.94,15.16,14.94,15.19-6.34,15.19-14.94-6.82-14.94-15.19-14.94ZM229.23,120.11c-4.58,0-8.52-3.74-8.52-9.05s3.94-9.06,8.52-9.06,8.54,3.67,8.54,9.06-3.96,9.05-8.54,9.05Z"/>
    <path class="cls-1" d="M196.14,96.11c-8.37,0-15.17,6.28-15.17,14.94s6.8,14.94,15.17,14.94,15.16-6.34,15.16-14.94-6.81-14.94-15.16-14.94ZM196.14,120.11c-4.58,0-8.54-3.74-8.54-9.05s3.95-9.06,8.54-9.06,8.52,3.67,8.52,9.06-3.94,9.05-8.52,9.05Z"/>
    <rect class="cls-1" x="280.74" y="81.17" width="6.65" height="43.91"/>
    <path class="cls-1" d="M317.78,105.61h0c-1.25-3.34-5.1-9.5-12.95-9.5s-14.25,6.05-14.25,14.94c0,8.37,6.41,14.94,14.99,14.94,6.95,0,10.95-4.18,12.6-6.62l-5.15-3.39c-1.72,2.48-4.06,4.13-7.45,4.13s-5.78-1.52-7.32-4.53l20.22-8.26-.7-1.7ZM297.17,110.59c-.17-5.76,4.53-8.71,7.89-8.71,2.64,0,4.88,1.3,5.62,3.17l-13.52,5.54Z"/>
    <path class="cls-1" d="M269.85,99.44h-.22c-1.49-1.75-4.34-3.33-7.95-3.33-7.57,0-14.49,6.57-14.49,14.99s6.92,14.89,14.49,14.89c3.61,0,6.45-1.59,7.95-3.39h.22v2.14c0,5.71-3.09,8.78-8.07,8.78-4.06,0-6.58-2.9-7.62-5.33l-5.78,2.38c1.67,3.96,6.08,8.83,13.4,8.83,7.79,0,14.37-4.53,14.37-15.56v-26.83h-6.3v2.42ZM262.25,120.11c-4.58,0-8.41-3.79-8.41-9.01s3.83-9.11,8.41-9.11,8.07,3.84,8.07,9.11-3.56,9.01-8.07,9.01Z"/>
  </g>
  <path d="M30.36,153.36c-1.22,0-2.41-.02-3.63-.04-2.24-.06-4.9-.19-7.49-.65-2.45-.44-4.62-1.16-6.64-2.2-2.09-1.06-3.97-2.43-5.6-4.08-1.66-1.63-3.02-3.5-4.09-5.6-1.04-2.02-1.75-4.2-2.18-6.64-.49-2.7-.61-5.43-.67-7.52-.03-.85-.06-3.66-.06-3.66V30.35s.04-2.77.06-3.59c.05-2.1.18-4.84.66-7.51.43-2.46,1.14-4.63,2.18-6.66,1.07-2.1,2.43-3.98,4.07-5.61,1.66-1.66,3.55-3.03,5.62-4.1,2.06-1.05,4.23-1.76,6.63-2.18C21.92.22,24.66.1,26.74.05l3.62-.05h412.05l3.66.05c2.06.05,4.79.17,7.45.65,2.42.42,4.6,1.14,6.7,2.2,2.06,1.05,3.94,2.43,5.58,4.07,1.64,1.63,3.01,3.52,4.1,5.63,1.03,2.05,1.74,4.22,2.15,6.61.47,2.53.61,5.13.7,7.57.01,1.14.01,2.36.01,3.57.03,1.5.03,2.93.03,4.38v83.91c0,1.46,0,2.88-.03,4.31,0,1.3,0,2.5-.02,3.73-.08,2.36-.23,4.96-.69,7.43-.41,2.46-1.12,4.63-2.17,6.7-1.08,2.08-2.45,3.97-4.07,5.56-1.66,1.68-3.54,3.04-5.61,4.1-2.08,1.06-4.2,1.76-6.69,2.2-2.57.47-5.23.59-7.49.65-1.17.03-2.4.04-3.6.04h-4.35s-407.73,0-407.73,0Z"/>
  <g>
    <path class="cls-1" d="M95.81,77.89c-.1-11.03,9.03-16.4,9.45-16.65-5.17-7.54-13.19-8.57-16-8.65-6.73-.71-13.26,4.03-16.69,4.03s-8.78-3.96-14.47-3.84c-7.32.11-14.18,4.35-17.93,10.94-7.75,13.43-1.97,33.16,5.46,44.01,3.72,5.31,8.06,11.25,13.74,11.04,5.56-.23,7.64-3.55,14.35-3.55s8.6,3.55,14.4,3.41c5.97-.1,9.73-5.34,13.31-10.7,4.29-6.09,6.02-12.09,6.09-12.4-.14-.05-11.59-4.41-11.7-17.64Z"/>
    <path class="cls-1" d="M84.86,45.45c2.99-3.74,5.04-8.83,4.47-14-4.33.19-9.74,2.99-12.86,6.65-2.76,3.22-5.22,8.51-4.59,13.48,4.86.36,9.86-2.45,12.98-6.14Z"/>
  </g>
  <g>
    <path class="cls-1" d="M166.11,105.31h-18.98l-4.56,13.46h-8.04l17.98-49.79h8.35l17.98,49.79h-8.18l-4.55-13.46ZM149.1,99.1h15.04l-7.42-21.84h-.21l-7.42,21.84Z"/>
    <path class="cls-1" d="M217.66,100.62c0,11.28-6.04,18.53-15.15,18.53-5.17,0-9.28-2.31-11.42-6.35h-.17v17.98h-7.45v-48.31h7.21v6.04h.14c2.07-3.9,6.49-6.42,11.56-6.42,9.21,0,15.29,7.28,15.29,18.53ZM210,100.62c0-7.35-3.8-12.18-9.59-12.18s-9.52,4.93-9.52,12.18,3.83,12.21,9.52,12.21,9.59-4.8,9.59-12.21Z"/>
    <path class="cls-1" d="M257.62,100.62c0,11.28-6.04,18.53-15.15,18.53-5.17,0-9.28-2.31-11.42-6.35h-.17v17.98h-7.45v-48.31h7.21v6.04h.14c2.07-3.9,6.49-6.42,11.56-6.42,9.21,0,15.29,7.28,15.29,18.53ZM249.96,100.62c0-7.35-3.8-12.18-9.59-12.18s-9.52,4.93-9.52,12.18,3.83,12.21,9.52,12.21,9.59-4.8,9.59-12.21Z"/>
    <path class="cls-1" d="M284.02,104.89c.55,4.94,5.35,8.18,11.9,8.18s10.8-3.24,10.8-7.69c0-3.86-2.73-6.18-9.18-7.76l-6.45-1.55c-9.14-2.21-13.39-6.48-13.39-13.42,0-8.59,7.49-14.49,18.12-14.49s17.73,5.9,17.98,14.49h-7.52c-.45-4.97-4.56-7.97-10.56-7.97s-10.11,3.03-10.11,7.45c0,3.52,2.62,5.59,9.04,7.18l5.49,1.35c10.22,2.42,14.46,6.52,14.46,13.8,0,9.32-7.42,15.15-19.22,15.15-11.04,0-18.5-5.7-18.98-14.7h7.63Z"/>
    <path class="cls-1" d="M330.68,73.87v8.59h6.9v5.9h-6.9v20.01c0,3.11,1.38,4.56,4.42,4.56.76,0,1.97-.11,2.45-.17v5.87c-.83.21-2.48.34-4.14.34-7.35,0-10.22-2.76-10.22-9.8v-20.81h-5.28v-5.9h5.28v-8.59h7.49Z"/>
    <path class="cls-1" d="M341.58,100.62c0-11.42,6.73-18.6,17.22-18.6s17.22,7.18,17.22,18.6-6.66,18.6-17.22,18.6-17.22-7.15-17.22-18.6ZM368.42,100.62c0-7.83-3.59-12.46-9.63-12.46s-9.62,4.66-9.62,12.46,3.59,12.46,9.62,12.46,9.63-4.59,9.63-12.46Z"/>
    <path class="cls-1" d="M382.16,82.47h7.11v6.18h.17c1.14-4.11,4.45-6.56,8.73-6.56,1.07,0,1.97.14,2.55.28v6.97c-.59-.24-1.9-.45-3.35-.45-4.8,0-7.76,3.25-7.76,8.35v21.53h-7.45v-36.3Z"/>
    <path class="cls-1" d="M435.08,108.1c-1,6.59-7.42,11.11-15.63,11.11-10.56,0-17.11-7.08-17.11-18.43s6.59-18.77,16.8-18.77,16.36,6.9,16.36,17.91v2.55h-25.64v.45c0,6.21,3.9,10.28,9.77,10.28,4.14,0,7.38-1.97,8.38-5.11h7.08ZM409.89,97.27h18.15c-.17-5.56-3.73-9.21-8.9-9.21s-8.86,3.73-9.24,9.21Z"/>
  </g>
  <g>
    <path class="cls-1" d="M148.16,31.5c7.09,0,11.26,4.36,11.26,11.89s-4.13,12.04-11.26,12.04h-8.64v-23.92h8.64ZM143.24,52.04h4.51c5,0,7.89-3.12,7.89-8.6s-2.93-8.56-7.89-8.56h-4.51v17.16Z"/>
    <path class="cls-1" d="M163.62,46.39c0-5.82,3.25-9.37,8.52-9.37s8.51,3.55,8.51,9.37-3.23,9.38-8.51,9.38-8.52-3.53-8.52-9.38ZM176.98,46.39c0-3.91-1.76-6.2-4.84-6.2s-4.84,2.29-4.84,6.2,1.74,6.22,4.84,6.22,4.84-2.29,4.84-6.22Z"/>
    <path class="cls-1" d="M203.28,55.42h-3.7l-3.73-13.3h-.28l-3.72,13.3h-3.66l-4.98-18.05h3.61l3.23,13.78h.27l3.71-13.78h3.42l3.71,13.78h.28l3.22-13.78h3.56l-4.96,18.05Z"/>
    <path class="cls-1" d="M212.43,37.37h3.43v2.87h.27c.88-2.01,2.67-3.22,5.39-3.22,4.03,0,6.25,2.42,6.25,6.72v11.69h-3.56v-10.79c0-2.9-1.26-4.34-3.9-4.34s-4.31,1.76-4.31,4.58v10.56h-3.56v-18.05Z"/>
    <path class="cls-1" d="M233.44,30.32h3.56v25.1h-3.56v-25.1Z"/>
    <path class="cls-1" d="M241.95,46.39c0-5.82,3.25-9.37,8.52-9.37s8.51,3.55,8.51,9.37-3.24,9.38-8.51,9.38-8.52-3.53-8.52-9.38ZM255.32,46.39c0-3.91-1.76-6.2-4.84-6.2s-4.84,2.29-4.84,6.2,1.74,6.22,4.84,6.22,4.84-2.29,4.84-6.22Z"/>
    <path class="cls-1" d="M262.74,50.32c0-3.25,2.42-5.12,6.72-5.39l4.89-.28v-1.56c0-1.91-1.26-2.98-3.7-2.98-1.99,0-3.37.73-3.76,2.01h-3.45c.36-3.1,3.28-5.09,7.38-5.09,4.53,0,7.08,2.25,7.08,6.07v12.34h-3.43v-2.54h-.28c-1.08,1.81-3.05,2.83-5.42,2.83-3.48,0-6.02-2.1-6.02-5.4ZM274.34,48.77v-1.51l-4.41.28c-2.49.17-3.61,1.01-3.61,2.6s1.41,2.57,3.35,2.57c2.69,0,4.68-1.71,4.68-3.95Z"/>
    <path class="cls-1" d="M282.57,46.39c0-5.7,2.93-9.32,7.49-9.32,2.47,0,4.56,1.18,5.54,3.17h.27v-9.92h3.56v25.1h-3.41v-2.85h-.28c-1.08,1.97-3.18,3.15-5.67,3.15-4.59,0-7.49-3.61-7.49-9.33ZM286.25,46.39c0,3.83,1.8,6.13,4.82,6.13s4.86-2.34,4.86-6.12-1.88-6.13-4.86-6.13-4.82,2.32-4.82,6.12Z"/>
    <path class="cls-1" d="M314.17,46.39c0-5.82,3.25-9.37,8.52-9.37s8.51,3.55,8.51,9.37-3.23,9.38-8.51,9.38-8.52-3.53-8.52-9.38ZM327.54,46.39c0-3.91-1.76-6.2-4.84-6.2s-4.84,2.29-4.84,6.2,1.74,6.22,4.84,6.22,4.84-2.29,4.84-6.22Z"/>
    <path class="cls-1" d="M335.98,37.37h3.43v2.87h.27c.88-2.01,2.67-3.22,5.39-3.22,4.03,0,6.25,2.42,6.25,6.72v11.69h-3.56v-10.79c0-2.9-1.26-4.34-3.9-4.34s-4.31,1.76-4.31,4.58v10.56h-3.56v-18.05Z"/>
    <path class="cls-1" d="M371.45,32.87v4.58h3.91v3h-3.91v9.28c0,1.89.78,2.72,2.55,2.72.55,0,.86-.03,1.36-.08v2.97c-.58.1-1.25.18-1.94.18-3.96,0-5.54-1.39-5.54-4.87v-10.2h-2.87v-3h2.87v-4.58h3.57Z"/>
    <path class="cls-1" d="M380.23,30.32h3.53v9.95h.28c.88-2.02,2.78-3.23,5.51-3.23,3.85,0,6.22,2.44,6.22,6.73v11.66h-3.57v-10.78c0-2.88-1.34-4.34-3.86-4.34-2.92,0-4.55,1.84-4.55,4.58v10.54h-3.56v-25.1Z"/>
    <path class="cls-1" d="M416.54,50.55c-.81,3.23-3.7,5.22-7.82,5.22-5.17,0-8.34-3.55-8.34-9.32s3.23-9.43,8.32-9.43,8.05,3.43,8.05,9.1v1.24h-12.75v.2c.12,3.17,1.96,5.17,4.81,5.17,2.16,0,3.63-.78,4.3-2.19h3.43ZM404.01,44.73h9.12c-.08-2.83-1.8-4.68-4.44-4.68s-4.48,1.86-4.68,4.68Z"/>
  </g>
</svg>