<?xml version="1.0" encoding="UTF-8"?>
<svg id="Layer" xmlns="http://www.w3.org/2000/svg" xmlns:xlink="http://www.w3.org/1999/xlink" viewBox="0 0 479.8 140.51">
  <defs>
    <style>
      .cls-1 {
        fill: url(#linear-gradient-2);
      }

      .cls-2 {
        fill: #fff;
      }

      .cls-3 {
        fill: url(#linear-gradient-4);
      }

      .cls-4 {
        fill: url(#linear-gradient-3);
      }

      .cls-5 {
        fill: url(#linear-gradient);
      }
    </style>
    <linearGradient id="linear-gradient" x1="85.89" y1="-100.54" x2="26.73" y2="-41.38" gradientTransform="translate(-9.11 10.09) scale(1 -.99)" gradientUnits="userSpaceOnUse">
      <stop offset="0" stop-color="#00a0ff"/>
      <stop offset="0" stop-color="#00a1ff"/>
      <stop offset=".26" stop-color="#00beff"/>
      <stop offset=".51" stop-color="#00d2ff"/>
      <stop offset=".76" stop-color="#00dfff"/>
      <stop offset="1" stop-color="#00e3ff"/>
    </linearGradient>
    <linearGradient id="linear-gradient-2" x1="129.06" y1="-60.73" x2="43.27" y2="-60.73" gradientTransform="translate(-9.11 10.09) scale(1 -.99)" gradientUnits="userSpaceOnUse">
      <stop offset="0" stop-color="#ffe000"/>
      <stop offset=".41" stop-color="#ffbd00"/>
      <stop offset=".78" stop-color="orange"/>
      <stop offset="1" stop-color="#ff9c00"/>
    </linearGradient>
    <linearGradient id="linear-gradient-3" x1="67.53" y1="-82.18" x2="-13.14" y2="-1.51" gradientTransform="translate(-9.11 10.09) scale(1 -.99)" gradientUnits="userSpaceOnUse">
      <stop offset="0" stop-color="#ff3a44"/>
      <stop offset="1" stop-color="#c31162"/>
    </linearGradient>
    <linearGradient id="linear-gradient-4" x1="5.39" y1="-101.43" x2="41.42" y2="-65.4" gradientTransform="translate(-9.11 10.09) scale(1 -.99)" gradientUnits="userSpaceOnUse">
      <stop offset="0" stop-color="#32a071"/>
      <stop offset=".07" stop-color="#2da771"/>
      <stop offset=".48" stop-color="#15cf74"/>
      <stop offset=".8" stop-color="#06e775"/>
      <stop offset="1" stop-color="#00f076"/>
    </linearGradient>
  </defs>
  <path id="_path_" data-name="&amp;lt;path&amp;gt;" d="M462.03,140.51H17.77c-9.77,0-17.77-7.91-17.77-17.56V17.56C0,7.91,8,0,17.77,0h444.26c9.77,0,17.77,7.91,17.77,17.56v105.38c0,9.66-8,17.56-17.77,17.56Z"/>
  <g>
    <path class="cls-2" d="M168.44,34.38v-.06h-10.48v2.69h7.73c-.17,1.75-.76,3.14-1.76,4.14-1.56,1.54-3.54,2.33-5.9,2.33-2.19,0-4.14-.78-5.78-2.31-1.61-1.54-2.42-3.57-2.42-6.03s.82-4.48,2.42-6.01c1.62-1.53,3.57-2.31,5.78-2.31,2.48,0,4.37.8,5.79,2.46l.06.07,1.97-1.96-.05-.06c-.82-.98-1.95-1.78-3.36-2.37-1.43-.6-2.91-.9-4.41-.9-3.08,0-5.74,1.08-7.9,3.2-2.16,2.11-3.25,4.77-3.25,7.9s1.09,5.78,3.25,7.91c2.17,2.11,4.82,3.18,7.9,3.18s5.88-1.06,7.9-3.15c1.77-1.77,2.66-4.16,2.66-7.09,0-.6-.05-1.11-.16-1.61Z"/>
    <polygon class="cls-2" points="172.38 45.74 184.98 45.74 184.98 42.99 175.28 42.99 175.28 36.48 184.03 36.48 184.03 33.78 175.28 33.78 175.28 27.26 184.98 27.26 184.98 24.52 172.38 24.52 172.38 45.74"/>
    <polygon class="cls-2" points="187.69 27.26 193.64 27.26 193.64 45.74 196.54 45.74 196.54 27.26 202.49 27.26 202.49 24.52 187.69 24.52 187.69 27.26"/>
  </g>
  <g>
    <rect class="cls-2" x="212.94" y="24.52" width="2.9" height="21.22"/>
    <polygon class="cls-2" points="219.13 27.26 225.1 27.26 225.1 45.74 227.99 45.74 227.99 27.26 233.96 27.26 233.96 24.52 219.13 24.52 219.13 27.26"/>
  </g>
  <g>
    <path class="cls-2" d="M253.8,24.04c-3.13,0-5.78,1.08-7.88,3.22-2.1,2.13-3.16,4.78-3.16,7.88s1.06,5.74,3.16,7.87c2.11,2.13,4.76,3.22,7.88,3.22s5.76-1.08,7.87-3.22h0c2.1-2.13,3.16-4.78,3.16-7.87s-1.07-5.72-3.18-7.86c-2.1-2.15-4.74-3.23-7.85-3.23ZM261.88,35.13c0,2.42-.79,4.44-2.36,6-1.54,1.56-3.46,2.34-5.72,2.34s-4.16-.77-5.74-2.34c-1.56-1.56-2.36-3.58-2.36-6s.79-4.44,2.36-6c1.56-1.56,3.49-2.34,5.74-2.34s4.18.79,5.72,2.34c1.56,1.56,2.36,3.58,2.36,6Z"/>
    <polygon class="cls-2" points="282.21 24.52 282.21 36.93 282.33 40.88 272 24.56 271.98 24.52 268.52 24.52 268.52 45.74 271.4 45.74 271.4 32.53 271.29 28.56 282.13 45.74 285.11 45.74 285.11 24.52 282.21 24.52"/>
  </g>
  <g>
    <rect class="cls-2" x="380.05" y="61.47" width="6.65" height="43.91"/>
    <path class="cls-2" d="M402.97,76.33c-4.79,0-9.77,2.09-11.82,6.72l5.88,2.44c1.26-2.44,3.59-3.23,6.05-3.23,3.44,0,6.93,2.04,6.98,5.65v.46c-1.2-.69-3.77-1.7-6.92-1.7-6.34,0-12.79,3.45-12.79,9.88,0,5.89,5.19,9.67,11.02,9.67,4.46,0,6.92-1.99,8.47-4.3h.22v3.39h6.4v-16.84c0-7.79-5.88-12.14-13.5-12.14ZM402.17,100.39c-2.17,0-5.19-1.06-5.19-3.72,0-3.4,3.77-4.7,7.03-4.7,2.92,0,4.29.63,6.06,1.48-.52,4.06-4.06,6.95-7.9,6.95Z"/>
    <path class="cls-2" d="M361.82,61.47h-15.9v43.91h6.63v-16.64h9.27c7.36,0,14.58-5.27,14.58-13.64s-7.24-13.64-14.58-13.64ZM362,82.64h-9.44v-15.06h9.44c4.95,0,7.77,4.06,7.77,7.53s-2.83,7.53-7.77,7.53Z"/>
    <polygon class="cls-2" points="439.79 77.29 432.18 96.33 431.95 96.33 424.07 77.29 416.92 77.29 428.76 103.89 422.01 118.69 428.93 118.69 447.17 77.29 439.79 77.29"/>
  </g>
  <g>
    <path class="cls-2" d="M169.68,80.99v6.35h15.34c-.45,3.55-1.65,6.16-3.49,7.97-2.24,2.2-5.73,4.63-11.85,4.63-9.44,0-16.83-7.53-16.83-16.86s7.39-16.86,16.83-16.86c5.1,0,8.82,1.97,11.56,4.53l4.53-4.47c-3.84-3.62-8.94-6.4-16.09-6.4-12.95,0-23.83,10.41-23.83,23.21s10.88,23.21,23.83,23.21c6.99,0,12.25-2.26,16.38-6.52,4.23-4.18,5.55-10.07,5.55-14.82,0-1.47-.12-2.83-.35-3.96h-21.59Z"/>
    <path class="cls-2" d="M242.15,76.41c-8.35,0-15.16,6.28-15.16,14.94s6.82,14.94,15.16,14.94,15.19-6.34,15.19-14.94-6.82-14.94-15.19-14.94ZM242.15,100.41c-4.58,0-8.52-3.74-8.52-9.05s3.94-9.06,8.52-9.06,8.54,3.67,8.54,9.06-3.96,9.05-8.54,9.05Z"/>
    <path class="cls-2" d="M209.06,76.41c-8.37,0-15.17,6.28-15.17,14.94s6.8,14.94,15.17,14.94,15.16-6.34,15.16-14.94-6.81-14.94-15.16-14.94ZM209.06,100.41c-4.58,0-8.54-3.74-8.54-9.05s3.95-9.06,8.54-9.06,8.52,3.67,8.52,9.06-3.94,9.05-8.52,9.05Z"/>
    <rect class="cls-2" x="293.66" y="61.47" width="6.65" height="43.91"/>
    <path class="cls-2" d="M330.71,85.91h0c-1.25-3.34-5.1-9.5-12.95-9.5s-14.25,6.05-14.25,14.94c0,8.37,6.41,14.94,14.99,14.94,6.95,0,10.95-4.18,12.6-6.62l-5.15-3.39c-1.72,2.48-4.06,4.13-7.45,4.13s-5.78-1.52-7.32-4.53l20.22-8.26-.7-1.7ZM310.09,90.89c-.17-5.76,4.53-8.71,7.89-8.71,2.64,0,4.88,1.3,5.62,3.17l-13.52,5.54Z"/>
    <path class="cls-2" d="M282.78,79.74h-.22c-1.49-1.75-4.34-3.33-7.95-3.33-7.57,0-14.49,6.57-14.49,14.99s6.92,14.89,14.49,14.89c3.61,0,6.45-1.59,7.95-3.39h.22v2.14c0,5.71-3.09,8.78-8.07,8.78-4.06,0-6.58-2.9-7.62-5.33l-5.78,2.38c1.67,3.96,6.08,8.83,13.4,8.83,7.79,0,14.37-4.53,14.37-15.56v-26.83h-6.3v2.42ZM275.17,100.41c-4.58,0-8.41-3.79-8.41-9.01s3.83-9.11,8.41-9.11,8.07,3.84,8.07,9.11-3.56,9.01-8.07,9.01Z"/>
  </g>
  <path id="_path_-2" data-name="&amp;lt;path&amp;gt;" class="cls-5" d="M37.09,26.48c-1.04,1.08-1.65,2.76-1.65,4.94v77.68c0,2.18.61,3.86,1.65,4.94l44.3-43.79L37.09,26.48Z"/>
  <path id="_path_-3" data-name="&amp;lt;path&amp;gt;" class="cls-1" d="M81.39,70.26l15.01-14.84,17.39,9.78c4.96,2.77,4.96,7.34,0,10.13l-17.39,9.76-15.01-14.84Z"/>
  <path id="_path_-4" data-name="&amp;lt;path&amp;gt;" class="cls-4" d="M96.4,85.09l-15.01-14.84-44.3,43.79c1.65,1.71,4.33,1.92,7.39.2l51.92-29.16"/>
  <path id="_path_-5" data-name="&amp;lt;path&amp;gt;" class="cls-3" d="M96.4,55.42l-51.92-29.16c-3.06-1.7-5.74-1.49-7.39.23l44.3,43.77,15.01-14.84Z"/>
</svg>