<?xml version="1.0" encoding="UTF-8"?>
<svg id="Layer_1" xmlns="http://www.w3.org/2000/svg" version="1.1" viewBox="0 0 250 100">
  <!-- Generator: Adobe Illustrator 29.0.0, SVG Export Plug-In . SVG Version: 2.1.0 Build 186)  -->
  <defs>
    <style>
      .st0 {
        fill: #f7b31d;
      }

      .st1 {
        fill: #010101;
      }
    </style>
  </defs>
  <path class="st1" d="M155.5,36c-9.6,0-16.2-7.7-16.2-16.6s6.6-16.6,16.2-16.6,16.1,7.7,16.1,16.6-6.5,16.6-16.1,16.6ZM155.5,5.3c-8.3,0-13.3,6.7-13.3,14.1s5,14.1,13.3,14.1,13.2-6.7,13.2-14.1-4.9-14.1-13.2-14.1Z"/>
  <path class="st1" d="M192.9,34.5c0,.8-.6,1.4-1.4,1.4s-1.4-.6-1.4-1.4v-10.8c0-4-3-7-7-7s-7,3-7,7v10.8c0,.8-.6,1.4-1.4,1.4s-1.5-.6-1.5-1.4v-10.5c0-5.5,4.3-9.9,9.9-9.9s9.9,4.3,9.9,9.9v10.5Z"/>
  <path class="st1" d="M112.7,30.2,106.7,92.4c-3,0-5.1-2.3-5.1-5.1v-38.6c0-2.8,2.2-5.1,5.1-5.1s5.1,2.3,5.1,5.1v38.6c0,2.8-2.1,5.1-5.1,5.1Z"/>
  <path class="st1" d="M152.9,84.3c2.7,3.1.4,5.9-.5,6.5-1.9,1.3-4.5,1.6-7-.5-1.2-1-16.2-16.2-16.2-16.2h0v13.2c0,2.8-2.1,5.1-5.1,5.1s-5.1-2.3-5.1-5.1v-38.5c0-2.8,2-5.2,5-5.2s5,2.4,5,5.2l.2,13.7s13-14.4,13.7-15.2c1.8-1.9,4.1-3.3,6.5-2.7,3.4.8,4.7,5.4,1.7,8.8l-12.9,15.7"/>
  <path class="st0" d="M192.2,71.6c2.9,0,6.3-2.6,7.1-4.2,5.1-10.6-7-24.3-20.7-24.3s-24.3,10.6-24.3,24.8,8.6,24.8,24.7,24.8,15.2-3.1,19.3-7.9c.8-.9,1.3-1.8,1.3-2.9,0-2.6-2-4.2-4.2-4.2s-2.5.8-3.4,1.6c-3.6,3.4-6.9,5.3-12.6,5.3-9,0-14.1-5.6-14.6-13.1,0,0,4.6-.3,4.6-4.1s-4.4-4.1-4.4-4.1c1-6.7,6.1-11.7,13.6-12,4.9-.2,9.5,1.4,11.7,4.9.9,1.3,1.3,3.3,1.3,3.3.3,1.9,0,3.2-.8,3.7-1.8,1.2-4.2.2-5.8,2.3-.3.4-.5,1-.5,1.8-.2,2.3,2.2,4.9,7.8,4.3h0Z"/>
  <path class="st1" d="M72.1,93.3c-12.9-.4-23.2-8.1-24.2-24.2l-.6-38.7c0-2.9,1.9-5.4,4.9-5.4s4.7,2.5,4.7,5.4l.4,10.6c0,3.5,2.6,5.9,5.5,4.1,2.9-1.9,7.5-3.2,11.3-3.2,12.5,0,22.8,10.2,22.8,25.7s-12.4,26.2-24.9,25.7ZM72.2,50.6c-8.8,0-14.7,8-14.7,17s5.9,17,14.7,17,14.6-6.9,14.6-17-5.8-17-14.6-17Z"/>
</svg>