<?xml version="1.0" encoding="UTF-8"?>
<svg id="Layer_1" data-name="Layer 1" xmlns="http://www.w3.org/2000/svg" xmlns:xlink="http://www.w3.org/1999/xlink" viewBox="0 0 141.5 288.61">
  <defs>
    <style>
      .cls-1 {
        fill: #fff;
      }

      .cls-2 {
        fill: none;
      }

      .cls-3 {
        fill: #ea535c;
      }

      .cls-4 {
        fill: #161410;
      }

      .cls-5 {
        fill: #f6b519;
      }

      .cls-6 {
        fill: #010101;
      }

      .cls-7 {
        clip-path: url(#clippath);
      }

      .cls-8 {
        fill: #171717;
      }
    </style>
    <clipPath id="clippath">
      <rect class="cls-2" x="54.58" y="128.29" width="38.89" height="22.55"/>
    </clipPath>
  </defs>
  <path class="cls-6" d="M24.61,288.61c-15.18,0-23.53-8.88-23.53-24.99V23.51C1.07,17.99,2.8,0,25.01,0h90.17c17.6,0,25.45,7.93,25.45,25.7v238.28c0,16.11-8.13,24.63-23.5,24.63H24.61Z"/>
  <path class="cls-6" d="M140.63,87.85h.14c.4,0,.72.32.72.72v31.55c0,.4-.32.72-.72.72h-.14v-32.99h0Z"/>
  <path class="cls-6" d="M0,62.06h.28c.44,0,.8.36.8.8v8.59c0,.44-.36.8-.8.8h-.28v-10.19h0Z" transform="translate(1.07 134.3) rotate(180)"/>
  <path class="cls-6" d="M0,80.93h.28c.44,0,.8.36.8.8v18.47c0,.44-.36.8-.8.8h-.28v-20.07h0Z" transform="translate(1.07 181.93) rotate(180)"/>
  <path class="cls-6" d="M0,106.5h.28c.44,0,.8.36.8.8v18.47c0,.44-.36.8-.8.8h-.28v-20.07h0Z" transform="translate(1.07 233.07) rotate(180)"/>
  <path class="cls-1" d="M134.79,264.64l-.03-.3V25.76c0-14.61-5.11-19.8-19.54-19.8h-18.7c-.82,0-1.49.67-1.49,1.49v1.4c0,3.93-3.19,7.12-7.12,7.12h-34.2c-3.93,0-7.12-3.19-7.12-7.12v-1.4c0-.82-.67-1.49-1.49-1.49h-20.06c-7.24,0-12.16,2.13-15.05,6.52-2.59,3.93-2.98,8.63-2.98,11.08v240.11c0,13.02,5.6,19.08,17.62,19.08h92.52c6.1,0,10.64-1.6,13.52-4.75,4.7-5.15,4.11-13.34,4.1-13.37Z"/>
  <circle class="cls-8" cx="54.64" cy="9.23" r="2.95"/>
  <rect class="cls-8" x="59.89" y="3.22" width="21.93" height="2.23" rx=".93" ry=".93"/>
  <rect class="cls-3" x="49.56" y="118.66" width="47.85" height="47.85" rx="8.5" ry="8.5"/>
  <g class="cls-7">
    <path class="cls-4" d="M81.37,136.53c-2.39,0-4.01-1.9-4.01-4.12s1.63-4.12,4.01-4.12,3.99,1.9,3.99,4.12-1.6,4.12-3.99,4.12M81.37,128.93c-2.05,0-3.29,1.66-3.29,3.48s1.24,3.48,3.29,3.48,3.27-1.66,3.27-3.48-1.22-3.48-3.27-3.48"/>
    <path class="cls-4" d="M90.63,136.17c0,.2-.15.36-.36.36s-.36-.15-.36-.36v-2.67c0-.99-.75-1.74-1.73-1.74s-1.73.75-1.73,1.74v2.67c0,.2-.16.36-.36.36s-.36-.15-.36-.36v-2.61c0-1.37,1.06-2.45,2.45-2.45s2.44,1.08,2.44,2.45v2.61Z"/>
    <path class="cls-4" d="M69.29,150.52c-.75,0-1.27-.57-1.27-1.26v-9.57c0-.7.54-1.26,1.27-1.26s1.26.56,1.26,1.26v9.57c0,.7-.51,1.26-1.26,1.26"/>
    <path class="cls-4" d="M80.74,148.5c.66.76.11,1.46-.11,1.62-.46.32-1.11.4-1.73-.13-.29-.24-4.01-4.02-4.01-4.02v3.28c0,.7-.51,1.26-1.26,1.26s-1.27-.57-1.27-1.26v-9.54c0-.7.49-1.29,1.25-1.29s1.23.58,1.23,1.28l.05,3.39s3.22-3.58,3.38-3.76c.45-.47,1.02-.82,1.61-.68.85.2,1.15,1.34.43,2.17l-3.19,3.89"/>
    <path class="cls-5" d="M90.46,145.36c.73,0,1.56-.64,1.75-1.03,1.26-2.62-1.75-6.01-5.13-6.01s-6.02,2.63-6.02,6.16,2.13,6.16,6.13,6.16c1.94,0,3.76-.78,4.78-1.96.19-.21.32-.46.32-.72,0-.65-.48-1.05-1.05-1.05-.32,0-.62.19-.83.4-.89.83-1.72,1.32-3.12,1.32-2.23,0-3.49-1.4-3.63-3.25,0,0,1.14-.07,1.14-1.02,0-1.01-1.08-1.02-1.08-1.02.24-1.67,1.51-2.91,3.36-2.98,1.22-.05,2.35.34,2.91,1.21.21.33.33.81.33.81.08.48,0,.79-.2.92-.46.3-1.03.06-1.44.58-.08.1-.12.25-.13.44-.04.58.56,1.23,1.92,1.07"/>
    <path class="cls-4" d="M60.72,150.73c-3.19-.11-5.74-2-5.99-5.99l-.15-9.58c0-.72.47-1.35,1.22-1.35s1.17.61,1.17,1.33l.11,2.62c0,.85.64,1.47,1.35,1.02.73-.46,1.85-.8,2.81-.8,3.11,0,5.64,2.53,5.64,6.37s-3.07,6.48-6.17,6.37M60.73,140.16c-2.19,0-3.64,1.98-3.64,4.2s1.46,4.2,3.64,4.2,3.62-1.7,3.62-4.2-1.43-4.2-3.62-4.2"/>
  </g>
</svg>