<?xml version="1.0" encoding="UTF-8"?>
<svg id="Layer_1" data-name="Layer 1" xmlns="http://www.w3.org/2000/svg" xmlns:xlink="http://www.w3.org/1999/xlink" viewBox="0 0 721.24 512.88">
  <defs>
    <style>
      .cls-1 {
        fill: none;
      }

      .cls-2 {
        fill: #ffcb1b;
      }

      .cls-3 {
        fill: #ea535c;
      }

      .cls-4 {
        fill: #161410;
      }

      .cls-5 {
        fill: #f6b519;
      }

      .cls-6 {
        fill: #010101;
      }

      .cls-7 {
        clip-path: url(#clippath);
      }

      .cls-8 {
        fill: #171717;
      }
    </style>
    <clipPath id="clippath">
      <rect class="cls-1" x="356.69" y="251.93" width="36.4" height="21.11"/>
    </clipPath>
  </defs>
  <path class="cls-6" d="M303.65,472.4c-22.24,0-34.49-13.01-34.49-36.62V83.9c0-8.08,2.53-34.45,35.08-34.45h132.15c25.79,0,37.29,11.62,37.29,37.67v349.2c0,23.61-11.91,36.09-34.44,36.09h-135.59Z"/>
  <path class="cls-6" d="M473.69,178.2h.55c.4,0,.72.32.72.72v46.91c0,.4-.32.72-.72.72h-.55v-48.35h0Z"/>
  <path class="cls-6" d="M267.59,140.39h.78c.44,0,.8.36.8.8v13.34c0,.44-.36.8-.8.8h-.78v-14.93h0Z" transform="translate(536.76 295.71) rotate(180)"/>
  <path class="cls-6" d="M267.59,168.05h.78c.44,0,.8.36.8.8v27.81c0,.44-.36.8-.8.8h-.78v-29.41h0Z" transform="translate(536.76 365.51) rotate(180)"/>
  <path class="cls-6" d="M267.59,205.53h.78c.44,0,.8.36.8.8v27.81c0,.44-.36.8-.8.8h-.78v-29.41h0Z" transform="translate(536.76 440.46) rotate(180)"/>
  <path class="cls-2" d="M465.12,437.27l-.04-.44V87.2c0-21.42-7.49-29.01-28.63-29.01h-27.41c-1.2,0-2.18.98-2.18,2.18v2.06c0,5.76-4.67,10.43-10.43,10.43h-50.12c-5.76,0-10.43-4.67-10.43-10.43v-2.06c0-1.2-.98-2.18-2.18-2.18h-29.4c-10.6,0-17.82,3.12-22.05,9.55-3.8,5.76-4.36,12.65-4.36,16.24v351.87c0,19.08,8.21,27.97,25.83,27.97h135.59c8.93,0,15.6-2.34,19.81-6.96,6.88-7.55,6.02-19.55,6.01-19.59Z"/>
  <circle class="cls-8" cx="347.67" cy="62.98" r="4.32"/>
  <rect class="cls-8" x="355.36" y="54.17" width="32.13" height="3.27" rx=".93" ry=".93"/>
  <rect class="cls-3" x="351.99" y="242.91" width="44.79" height="44.79" rx="8.5" ry="8.5"/>
  <g class="cls-7">
    <path class="cls-4" d="M381.76,259.63c-2.23,0-3.76-1.78-3.76-3.85s1.52-3.85,3.76-3.85,3.73,1.78,3.73,3.85-1.5,3.85-3.73,3.85M381.76,252.52c-1.92,0-3.08,1.55-3.08,3.26s1.16,3.26,3.08,3.26,3.06-1.55,3.06-3.26-1.14-3.26-3.06-3.26"/>
    <path class="cls-4" d="M390.43,259.3c0,.19-.14.34-.33.34s-.33-.14-.33-.34v-2.5c0-.93-.7-1.63-1.62-1.63s-1.62.7-1.62,1.63v2.5c0,.19-.15.34-.33.34s-.34-.14-.34-.34v-2.45c0-1.29.99-2.29,2.29-2.29s2.29,1.01,2.29,2.29v2.45Z"/>
    <path class="cls-4" d="M370.45,272.73c-.7,0-1.18-.53-1.18-1.18v-8.96c0-.65.5-1.18,1.18-1.18s1.18.53,1.18,1.18v8.96c0,.65-.48,1.18-1.18,1.18"/>
    <path class="cls-4" d="M381.17,270.84c.62.72.1,1.37-.1,1.51-.43.3-1.04.37-1.62-.12-.27-.23-3.76-3.76-3.76-3.76v3.07c0,.65-.48,1.18-1.18,1.18s-1.18-.53-1.18-1.18v-8.93c0-.65.46-1.21,1.17-1.21s1.15.55,1.15,1.2l.05,3.18s3.01-3.35,3.17-3.51c.42-.44.96-.77,1.5-.63.79.19,1.08,1.25.4,2.03l-2.98,3.64"/>
    <path class="cls-5" d="M390.27,267.9c.68,0,1.46-.6,1.64-.96,1.18-2.46-1.63-5.63-4.81-5.63s-5.64,2.47-5.64,5.76,1.99,5.76,5.74,5.76c1.81,0,3.52-.73,4.48-1.84.18-.2.3-.43.3-.68,0-.6-.45-.98-.98-.98-.3,0-.58.18-.78.38-.83.78-1.61,1.23-2.92,1.23-2.09,0-3.27-1.31-3.39-3.04,0,0,1.06-.06,1.06-.96,0-.95-1.02-.95-1.02-.95.23-1.56,1.41-2.72,3.14-2.79,1.14-.05,2.2.32,2.72,1.13.2.31.31.76.31.76.07.45,0,.74-.19.86-.43.28-.97.05-1.35.54-.08.1-.11.23-.12.41-.04.54.52,1.15,1.8,1"/>
    <path class="cls-4" d="M362.43,272.93c-2.98-.1-5.37-1.88-5.61-5.61l-.14-8.96c0-.68.44-1.26,1.15-1.26s1.1.57,1.1,1.25l.1,2.45c0,.8.6,1.38,1.26.96.68-.43,1.74-.75,2.63-.75,2.91,0,5.28,2.37,5.28,5.96s-2.87,6.07-5.77,5.97M362.44,263.03c-2.05,0-3.41,1.85-3.41,3.93s1.37,3.93,3.41,3.93,3.39-1.59,3.39-3.93-1.34-3.93-3.39-3.93"/>
  </g>
</svg>